<svg version="1" xmlns="http://www.w3.org/2000/svg" width="933.333" height="933.333" viewBox="0 0 700.000000 700.000000"><path d="M343.3 2c-14.3 3-25.7 13.9-28.9 27.9-1.1 4.5-1.4 30.1-1.4 130.3v124.7l-101.7-61.1c-56-33.6-104.3-62.2-107.3-63.6-7.5-3.5-18.8-3.6-27.5-.2-8.3 3.2-17.3 12.3-20.5 20.5-3.1 8.2-3.2 18.9-.1 26.7 4.8 12.3 2 10.4 117 79.3 57.8 34.7 105 63.2 105 63.5 0 .3-47.2 28.8-104.9 63.4-110 65.9-110.8 66.4-115.8 76.2-9.5 18.5 0 42.9 19.6 50.5 8.4 3.3 19.8 3.2 27.2-.3 3-1.4 51.3-30 107.3-63.6L313 415.1v124.7c0 134.5-.1 131.2 5.3 140.5 11.6 19.7 38.9 24.1 55.7 9 6.1-5.5 9.9-11.6 11.6-19.2 1.1-4.5 1.4-30.1 1.4-130.3V415.1l101.8 61.1c55.9 33.6 104.2 62.2 107.2 63.6 7.5 3.5 18.8 3.6 27.5.2 8.3-3.2 17.3-12.3 20.5-20.5 3.1-8.2 3.2-18.9.1-26.7-4.8-12.3-2-10.5-117-79.4-57.8-34.6-105-63.1-105-63.4 0-.3 47.2-28.8 105-63.5 115-68.9 112.3-67 117-79.3 3-7.9 3-18.6-.1-26.7-3.2-8.2-12.2-17.3-20.5-20.5-8.7-3.4-20-3.3-27.5.2-3 1.4-51.3 30-107.2 63.6L387 284.9V160.2c0-134.5.1-131.2-5.3-140.5C374.1 6.8 357.3-.9 343.3 2z"/></svg>